<svg width="40" height="40" viewBox="0 0 40 40" fill="none" xmlns="http://www.w3.org/2000/svg">
<g id="Frame">
<path id="Vector" d="M32.3908 32.3911H7.60814C6.95087 32.3911 6.32051 32.13 5.85575 31.6653C5.39098 31.2005 5.12988 30.5701 5.12988 29.9129V12.565C5.12988 11.9078 5.39098 11.2774 5.85575 10.8126C6.32051 10.3479 6.95087 10.0868 7.60814 10.0868H12.5647L15.0429 6.36938H24.956L27.4342 10.0868H32.3908C33.048 10.0868 33.6784 10.3479 34.1431 10.8126C34.6079 11.2774 34.869 11.9078 34.869 12.565V29.9129C34.869 30.5701 34.6079 31.2005 34.1431 31.6653C33.6784 32.13 33.048 32.3911 32.3908 32.3911Z" stroke="white" stroke-width="1.5" stroke-linecap="round" stroke-linejoin="round"/>
<path id="Vector_2" d="M19.9999 26.1954C23.0795 26.1954 25.576 23.6989 25.576 20.6193C25.576 17.5397 23.0795 15.0432 19.9999 15.0432C16.9203 15.0432 14.4238 17.5397 14.4238 20.6193C14.4238 23.6989 16.9203 26.1954 19.9999 26.1954Z" stroke="white" stroke-width="1.5" stroke-linecap="round" stroke-linejoin="round"/>
</g>
</svg>
